<?xml version="1.0" encoding="UTF-8" standalone="no"?>
<svg xmlns="http://www.w3.org/2000/svg" version="1.2" baseProfile="tiny" viewBox="0.00 0.00 150.00 150.00">
<g stroke-width="2.00" fill="none" stroke-linecap="butt">
<path stroke="#985c7d" vector-effect="non-scaling-stroke" d="
  M 80.40 12.85
  Q 74.84 17.25 72.07 21.05
  Q 68.01 26.60 66.31 34.55
  Q 64.99 40.69 66.86 50.01"
/>
<path stroke="#f15d79" vector-effect="non-scaling-stroke" d="
  M 49.35 69.14
  Q 36.96 65.82 29.62 55.35
  C 26.05 50.25 25.36 45.15 23.88 39.32"
/>
<path stroke="#4575a8" vector-effect="non-scaling-stroke" d="
  M 131.57 48.20
  Q 131.32 48.42 131.01 48.28
  Q 120.14 43.58 108.90 46.18
  Q 100.12 48.20 92.81 55.55"
/>
<path stroke="#f7907b" vector-effect="non-scaling-stroke" d="
  M 57.43 94.53
  C 54.81 96.39 52.44 98.66 49.91 100.10
  Q 39.70 105.94 27.75 104.04
  Q 25.70 103.72 18.72 101.41"
/>
<path stroke="#58b48d" vector-effect="non-scaling-stroke" d="
  M 126.07 110.30
  Q 124.54 95.43 113.04 86.46
  Q 108.22 82.70 100.59 80.48"
/>
<path stroke="#b0ce64" vector-effect="non-scaling-stroke" d="
  M 69.69 137.14
  Q 76.77 131.46 79.71 126.46
  Q 86.71 114.58 82.95 99.78"
/>
</g>
<path fill="#f4785f" d="
  M 80.40 12.85
  Q 74.84 17.25 72.07 21.05
  Q 68.01 26.60 66.31 34.55
  Q 64.99 40.69 66.86 50.01
  Q 53.32 55.05 49.35 69.14
  Q 36.96 65.82 29.62 55.35
  C 26.05 50.25 25.36 45.15 23.88 39.32
  C 24.15 36.57 23.95 33.67 24.45 31.18
  C 27.18 17.33 36.68 7.47 50.57 4.50
  Q 66.56 1.08 80.40 12.85
  Z"
/>
<path fill="#3b409a" d="
  M 131.57 48.20
  Q 131.32 48.42 131.01 48.28
  Q 120.14 43.58 108.90 46.18
  Q 100.12 48.20 92.81 55.55
  Q 81.66 46.04 66.86 50.01
  Q 64.99 40.69 66.31 34.55
  Q 68.01 26.60 72.07 21.05
  Q 74.84 17.25 80.40 12.85
  Q 85.95 9.38 92.34 8.03
  C 106.60 5.01 121.23 11.82 128.24 24.54
  Q 133.92 34.84 131.57 48.20
  Z"
/>
<path fill="#ee4192" d="
  M 23.88 39.32
  C 25.36 45.15 26.05 50.25 29.62 55.35
  Q 36.96 65.82 49.35 69.14
  Q 46.65 83.88 57.43 94.53
  C 54.81 96.39 52.44 98.66 49.91 100.10
  Q 39.70 105.94 27.75 104.04
  Q 25.70 103.72 18.72 101.41
  Q 13.68 98.32 11.95 96.81
  Q 3.33 89.27 1.10 78.02
  Q 0.65 75.72 0.00 73.49
  L 0.00 68.04
  Q 3.29 46.58 23.88 39.32
  Z"
/>
<path fill="#4faab5" d="
  M 131.57 48.20
  Q 131.64 48.41 131.73 48.58
  A 1.26 1.24 -89.5 0 0 132.27 49.14
  Q 135.87 51.04 137.42 52.35
  Q 148.16 61.42 150.00 75.43
  L 150.00 80.35
  Q 148.69 89.72 145.43 95.44
  Q 139.21 106.34 126.07 110.30
  Q 124.54 95.43 113.04 86.46
  Q 108.22 82.70 100.59 80.48
  Q 103.40 66.40 92.81 55.55
  Q 100.12 48.20 108.90 46.18
  Q 120.14 43.58 131.01 48.28
  Q 131.32 48.42 131.57 48.20
  Z"
/>
<path fill="#60bd64" d="
  M 126.07 110.30
  Q 126.45 125.63 117.30 135.47
  Q 109.47 143.88 98.36 145.80
  Q 87.56 147.67 77.03 142.32
  C 74.67 141.12 72.14 138.83 69.69 137.14
  Q 76.77 131.46 79.71 126.46
  Q 86.71 114.58 82.95 99.78
  Q 96.77 94.93 100.59 80.48
  Q 108.22 82.70 113.04 86.46
  Q 124.54 95.43 126.07 110.30
  Z"
/>
<path fill="#ffde63" d="
  M 82.95 99.78
  Q 86.71 114.58 79.71 126.46
  Q 76.77 131.46 69.69 137.14
  C 67.18 138.50 64.58 140.14 61.92 140.91
  Q 44.27 146.05 31.14 136.11
  Q 22.91 129.87 19.63 120.67
  Q 16.43 111.67 18.72 101.41
  Q 25.70 103.72 27.75 104.04
  Q 39.70 105.94 49.91 100.10
  C 52.44 98.66 54.81 96.39 57.43 94.53
  C 61.78 97.61 65.42 99.90 70.87 100.61
  Q 77.96 101.54 82.95 99.78
  Z"
/>
</svg>
